<svg width="76" height="32" viewBox="0 0 76 32" fill="none" xmlns="http://www.w3.org/2000/svg">
<path d="M0.371129 31.8433C-0.215304 31.2584 -0.0245925 30.5448 0.377488 29.9171C0.959153 29.391 1.55353 29.3624 2.29889 29.3847C4.0709 29.4387 6.45955 30.1698 8.09012 30.0935C9.7334 30.0172 10.8491 27.2328 9.94318 25.9583C9.05161 24.7043 4.21394 22.5573 3.87543 21.4893C3.41614 20.2831 5.10074 17.6576 6.24818 17.5146C7.79134 17.3223 11.5881 20.5437 13.1964 20.6136C14.3613 20.6645 16.0062 18.6557 15.9251 17.5305C15.8218 16.0843 12.4145 12.8628 11.739 11.3356C11.2289 9.86393 14.0864 7.74387 15.2576 7.98544C16.4289 8.227 19.4072 12.5084 20.6595 13.3078C21.4525 13.7528 23.9063 12.6229 24.2162 11.9538C24.9823 10.301 22.9162 6.48677 22.6635 4.62576C22.5443 3.74372 22.6635 3.4227 23.4073 2.89189C28.4262 -0.679159 28.3006 6.66953 30.5701 9.19485L30.9356 9.35696C33.6548 9.34901 34.5591 9.50317 34.8801 6.63616C35.0295 5.30278 34.8181 1.73014 35.3712 0.8052C36.0196 -0.278669 39.7337 -0.351772 40.247 1.1008C40.8493 2.80607 40.3773 5.92735 40.7206 7.8281C40.9924 9.33788 43.9404 9.95928 44.9019 9.10585C46.2432 7.9171 47.3891 2.82673 48.5143 2.18149C49.4313 1.65545 51.6642 2.41194 52.4493 3.12392C52.8656 3.61659 52.8434 4.05363 52.7576 4.6639C52.5335 6.2611 50.6185 10.6284 51.1334 11.8171C52.0567 12.6531 53.7048 13.8577 54.973 13.2014C56.122 12.3686 58.8508 8.5671 59.9903 8.20952C61.0773 7.86783 61.6939 8.45744 62.4615 9.09473C63.6455 10.0769 64.1954 10.5187 63.3801 11.949C62.5601 13.3873 60.1126 15.7203 59.6072 16.9568C59.4849 17.2571 59.4181 17.5352 59.4785 17.861C59.8123 18.8925 61.1981 20.6661 62.3503 20.5945C63.992 20.4912 68.0064 17.2714 69.3605 17.4685C70.3839 17.8833 72.005 20.3212 71.6935 21.3097C71.3184 22.5001 66.2551 24.957 65.2936 26.1553C64.8851 26.9213 65.6909 29.3799 66.3329 29.809C66.5205 29.9346 66.9035 30.0617 67.1276 30.0697C69.2095 30.1475 71.9064 29.2973 74.0933 29.4101C75.5331 29.7359 76.2626 31.8178 74.3221 31.848L58.5854 31.7606C57.8273 31.527 56.8944 28.6886 56.4033 27.7954C48.4173 13.3126 26.8846 13.4699 18.9876 27.9718C18.5728 28.7347 17.4778 31.8401 16.7086 31.8401H0.375897L0.371129 31.8433Z" fill="url(#paint0_radial_529_26)"/>
<defs>
<radialGradient id="paint0_radial_529_26" cx="0" cy="0" r="1" gradientUnits="userSpaceOnUse" gradientTransform="translate(38.0872 13.5256) scale(30.2879 30.2879)">
<stop stop-color="#FDDF2E"/>
<stop offset="0.94" stop-color="#CB6828"/>
</radialGradient>
</defs>
</svg>
